<svg xmlns="http://www.w3.org/2000/svg" viewBox="0 0 24 24">
  <g fill="red">
    <path d="m18.06.03-.08.3q-.43.03-.92.51-.26.26-1.38 1.59l-7.7 9.11h-.37l.23-9.32v-.7q0-.7-.2-.9Q7.45.4 6.8.31l.1-.28h4.75l-.1.3q-.75.02-1.01.53-.2.42-.25 1.62l-.17 5.6 4.4-5.2Q15.67 1.5 15.66.97q0-.53-.9-.64l.12-.29z" aria-label="V"/>
    <path d="m23.83.03-.13.3q-.8.03-1.13.33-.39.36-.72 1.51l-2.06 7.15q-.19.66-.19.94 0 .37.3.53.3.15 1.07.18l-.08.3h-5.6l.09-.3q.93-.03 1.27-.36.35-.34.7-1.54l2.1-7.26q.13-.48.13-.74 0-.4-.3-.55-.3-.16-1.04-.2l.1-.29z" aria-label="I"/>
    <path d="m11.18 23.7-.07.3h-5.1l.07-.3q1.1 0 1.38-.44.29-.43.32-1.8l.03-1.09H4.35l-.78.93q-1.14 1.38-1.13 1.85 0 .52.95.54V24H.04l.06-.3q.54-.1.94-.44.46-.38 1.54-1.7l7.47-9.07h.37l-.23 9.27v.64q0 .75.19.98.2.23.8.31zm-3.2-7.68-3.05 3.66h2.92z" aria-label="A"/>
    <path d="m23.93 12.75-.75 2.97h-.3q.02-.42-.14-.93-.15-.52-.37-.73-.51-.52-1.41-.65-.38-.06-1.6-.06h-.73l-1.24 4.26q1.16 0 1.6-.1.55-.1 1.13-.5.44-.28.87-1.14h.3l-1.28 4.45h-.32q.08-.41.08-.7 0-.54-.27-.88-.23-.3-.72-.4-.39-.08-1.57-.1l-1.1 3.8q-.2.7-.2.97 0 .36.29.5.29.16 1.04.18l-.08.31h-5.6l.14-.3q.94-.04 1.28-.37.35-.33.7-1.54l2.09-7.26q.14-.47.14-.75 0-.39-.32-.55-.28-.15-1.03-.19l.1-.29z" aria-label="F"/>
  </g>
</svg>